<svg width="27" height="26" viewBox="0 0 27 26" fill="none" xmlns="http://www.w3.org/2000/svg">
<path d="M10.125 20.5833C4.5 22.2083 4.5 17.875 2.25 17.3333M18 23.8333V19.6408C18.0422 19.1243 17.9697 18.605 17.7874 18.1175C17.6051 17.6299 17.317 17.1854 16.9425 16.8133C20.475 16.4342 24.1875 15.145 24.1875 9.23001C24.1872 7.71749 23.583 6.26298 22.5 5.16751C23.0128 3.84423 22.9766 2.38156 22.3987 1.08335C22.3987 1.08335 21.0713 0.70418 18 2.68668C15.4215 2.01374 12.7035 2.01374 10.125 2.68668C7.05375 0.70418 5.72625 1.08335 5.72625 1.08335C5.14842 2.38156 5.11216 3.84423 5.625 5.16751C4.53389 6.27111 3.92909 7.73877 3.9375 9.26251C3.9375 15.1342 7.65 16.4233 11.1825 16.8458C10.8124 17.2141 10.5269 17.6534 10.3447 18.1349C10.1625 18.6165 10.0877 19.1296 10.125 19.6408V23.8333" stroke="black" stroke-width="2" stroke-linecap="round" stroke-linejoin="round"/>
</svg>
