<svg width="26" height="70" viewBox="0 0 26 70" fill="none" xmlns="http://www.w3.org/2000/svg">
<path d="M12.9359 1.27808L17.6664 8.5003C19.5284 11.0883 24.4177 19.381 24.8886 21.7695C25.3595 24.158 25.1186 26.634 24.1964 28.8841C23.2742 31.1343 21.7121 33.0577 19.7077 34.4109C17.7033 35.7641 15.3467 36.4864 12.9359 36.4864C10.5251 36.4864 8.16846 35.7641 6.16406 34.4109C4.15967 33.0577 2.59757 31.1343 1.67536 28.8841C0.753153 26.634 0.512266 24.158 0.983171 21.7695C1.45408 19.381 10.4442 4.88919 10.4442 4.88919L12.9359 1.27808Z" stroke="#94C5D4" stroke-linecap="round" stroke-linejoin="round"/>
<ellipse cx="14.5" cy="20.5" rx="3.5" ry="15.5" fill="#94C5D5"/>
<ellipse cx="13.5" cy="18.5" rx="3.5" ry="15.5" fill="#94C5D5"/>
<ellipse cx="12.5" cy="17.5" rx="3.5" ry="15.5" fill="#94C5D5"/>
<ellipse cx="3.5" cy="1" rx="3.5" ry="1" transform="matrix(1 0 0 -1 13 13)" fill="#94C5D5"/>
<ellipse cx="10.5" cy="21" rx="3.5" ry="15" fill="#94C5D5"/>
<ellipse cx="8.5" cy="22" rx="3.5" ry="13" fill="#94C5D5"/>
<path d="M19.5 20C19.5 23.559 19.1111 26.7632 18.4921 29.0624C18.1816 30.2156 17.8206 31.1128 17.4406 31.7099C17.0453 32.3309 16.7154 32.5 16.5 32.5C16.2846 32.5 15.9547 32.3309 15.5594 31.7099C15.1794 31.1128 14.8184 30.2156 14.5079 29.0624C13.8889 26.7632 13.5 23.559 13.5 20C13.5 16.441 13.8889 13.2368 14.5079 10.9376C14.8184 9.78437 15.1794 8.88719 15.5594 8.29009C15.9547 7.66913 16.2846 7.5 16.5 7.5C16.7154 7.5 17.0453 7.66913 17.4406 8.29009C17.8206 8.88719 18.1816 9.78437 18.4921 10.9376C19.1111 13.2368 19.5 16.441 19.5 20Z" fill="#94C5D5" stroke="#94C5D4"/>
<path d="M18.5 19C18.5 22.5292 15.2069 25.5 11 25.5C6.79306 25.5 3.5 22.5292 3.5 19C3.5 15.4708 6.79306 12.5 11 12.5C15.2069 12.5 18.5 15.4708 18.5 19Z" fill="#94C5D5" stroke="#94C5D4"/>
<ellipse cx="15" cy="18" rx="8" ry="7" fill="#94C5D5"/>
<path d="M24.5 24.5C24.5 30.5553 19.3715 35.5 13 35.5C6.62846 35.5 1.5 30.5553 1.5 24.5C1.5 18.4447 6.62846 13.5 13 13.5C19.3715 13.5 24.5 18.4447 24.5 24.5Z" fill="#94C5D5" stroke="#94C5D4"/>
<path d="M12.9359 17.2781L17.6664 24.5003C19.5284 27.0883 24.4177 35.381 24.8886 37.7695C25.3595 40.158 25.1186 42.634 24.1964 44.8841C23.2742 47.1343 21.7121 49.0577 19.7077 50.4109C17.7033 51.7641 15.3467 52.4864 12.9359 52.4864C10.5251 52.4864 8.16846 51.7641 6.16406 50.4109C4.15967 49.0577 2.59757 47.1343 1.67536 44.8841C0.753153 42.634 0.512266 40.158 0.983171 37.7695C1.45408 35.381 10.4442 20.8892 10.4442 20.8892L12.9359 17.2781Z" stroke="#6E9DBD" stroke-linecap="round" stroke-linejoin="round"/>
<ellipse cx="14.5" cy="36.5" rx="3.5" ry="15.5" fill="#6E9DBD"/>
<ellipse cx="13.5" cy="34.5" rx="3.5" ry="15.5" fill="#6E9DBD"/>
<ellipse cx="12.5" cy="33.5" rx="3.5" ry="15.5" fill="#6E9DBD"/>
<ellipse cx="3.5" cy="1" rx="3.5" ry="1" transform="matrix(1 0 0 -1 13 29)" fill="#6E9DBD"/>
<ellipse cx="10.5" cy="37" rx="3.5" ry="15" fill="#6E9DBD"/>
<ellipse cx="8.5" cy="38" rx="3.5" ry="13" fill="#6E9DBD"/>
<ellipse cx="16.5" cy="36" rx="3.5" ry="13" fill="#6E9DBD"/>
<ellipse cx="11" cy="35" rx="8" ry="7" fill="#6E9DBD"/>
<ellipse cx="15" cy="34" rx="8" ry="7" fill="#6E9DBD"/>
<ellipse cx="13" cy="40.5" rx="12" ry="11.5" fill="#6E9DBD"/>
<path d="M13.1869 34L17.9174 41.2222C19.7794 43.8102 24.6687 52.1029 25.1396 54.4914C25.6105 56.8799 25.3696 59.3559 24.4474 61.6061C23.5252 63.8563 21.9631 65.7796 19.9587 67.1328C17.9543 68.486 15.5977 69.2083 13.1869 69.2083C10.7761 69.2083 8.41944 68.486 6.41504 67.1328C4.41064 65.7796 2.84855 63.8563 1.92634 61.6061C1.00413 59.3559 0.763243 56.8799 1.23415 54.4914C1.70505 52.1029 10.6952 37.6111 10.6952 37.6111L13.1869 34Z" stroke="#D7F5FF" stroke-linecap="round" stroke-linejoin="round"/>
</svg>
