<svg width="26" height="26" viewBox="0 0 26 26" fill="none" xmlns="http://www.w3.org/2000/svg">
<path d="M18.4166 2.16663H7.58329C4.59175 2.16663 2.16663 4.59175 2.16663 7.58329V18.4166C2.16663 21.4082 4.59175 23.8333 7.58329 23.8333H18.4166C21.4082 23.8333 23.8333 21.4082 23.8333 18.4166V7.58329C23.8333 4.59175 21.4082 2.16663 18.4166 2.16663Z" stroke="black" stroke-width="2" stroke-linecap="round" stroke-linejoin="round"/>
<path d="M17.3333 12.3175C17.467 13.2191 17.313 14.1399 16.8932 14.9489C16.4734 15.7579 15.8092 16.414 14.9951 16.8238C14.1809 17.2336 13.2583 17.3762 12.3584 17.2314C11.4585 17.0866 10.6272 16.6617 9.98271 16.0172C9.33821 15.3727 8.91334 14.5414 8.76854 13.6415C8.62374 12.7416 8.76637 11.819 9.17615 11.0049C9.58594 10.1907 10.242 9.52651 11.051 9.10672C11.8601 8.68693 12.7809 8.53293 13.6825 8.66663C14.6021 8.803 15.4536 9.23155 16.111 9.88896C16.7684 10.5464 17.1969 11.3978 17.3333 12.3175Z" stroke="black" stroke-width="2" stroke-linecap="round" stroke-linejoin="round"/>
<path d="M18.9584 7.04163H18.9693" stroke="black" stroke-width="2" stroke-linecap="round" stroke-linejoin="round"/>
</svg>
