<svg width="154" height="26" viewBox="0 0 154 26" fill="none" xmlns="http://www.w3.org/2000/svg">
<path d="M33.7583 3.336C34.8623 3.336 35.8463 3.48 36.7103 3.768C37.5743 4.04 38.2943 4.44 38.8703 4.968C39.4623 5.48 39.9103 6.104 40.2143 6.84C40.5183 7.56 40.6703 8.376 40.6703 9.288C40.6703 10.008 40.5583 10.728 40.3343 11.448C40.1263 12.168 39.7743 12.824 39.2783 13.416C38.7983 14.008 38.1583 14.488 37.3583 14.856C36.5583 15.208 35.5663 15.384 34.3823 15.384H31.8863V21H28.4063V3.336H33.7583ZM34.3583 12.024C34.8863 12.024 35.3263 11.936 35.6783 11.76C36.0303 11.584 36.3023 11.36 36.4943 11.088C36.7023 10.816 36.8463 10.536 36.9263 10.248C37.0223 9.944 37.0703 9.664 37.0703 9.408C37.0703 9.216 37.0383 8.976 36.9743 8.688C36.9263 8.384 36.8143 8.08 36.6383 7.776C36.4623 7.472 36.1903 7.216 35.8223 7.008C35.4703 6.8 34.9903 6.696 34.3823 6.696H31.8863V12.024H34.3583ZM37.6223 14.184L41.9903 21H37.9343L33.4703 14.28L37.6223 14.184ZM48.5568 21.288C47.5808 21.288 46.6928 21.096 45.8928 20.712C45.1088 20.312 44.4848 19.704 44.0208 18.888C43.5568 18.072 43.3248 17.032 43.3248 15.768C43.3248 14.584 43.5648 13.56 44.0448 12.696C44.5248 11.832 45.1568 11.168 45.9408 10.704C46.7248 10.224 47.5568 9.984 48.4368 9.984C49.4768 9.984 50.2608 10.16 50.7888 10.512C51.3328 10.848 51.7808 11.224 52.1328 11.64L51.9888 12.048L52.3008 10.512H55.4208V21H52.0608V18.72L52.3248 19.44C52.2928 19.44 52.1968 19.536 52.0368 19.728C51.8768 19.904 51.6368 20.12 51.3168 20.376C51.0128 20.616 50.6288 20.824 50.1648 21C49.7168 21.192 49.1808 21.288 48.5568 21.288ZM49.5168 18.552C49.9168 18.552 50.2768 18.496 50.5968 18.384C50.9168 18.256 51.1968 18.08 51.4368 17.856C51.6768 17.616 51.8848 17.32 52.0608 16.968V14.4C51.9328 14.048 51.7408 13.752 51.4848 13.512C51.2288 13.256 50.9248 13.064 50.5728 12.936C50.2208 12.792 49.8288 12.72 49.3968 12.72C48.9168 12.72 48.4688 12.848 48.0528 13.104C47.6528 13.344 47.3328 13.68 47.0928 14.112C46.8528 14.544 46.7328 15.04 46.7328 15.6C46.7328 16.16 46.8608 16.664 47.1168 17.112C47.3728 17.56 47.7088 17.912 48.1248 18.168C48.5568 18.424 49.0208 18.552 49.5168 18.552ZM58.7163 10.512H62.0763V21H58.7163V10.512ZM58.6443 6.792C58.6443 6.296 58.8363 5.888 59.2203 5.568C59.6203 5.248 60.0443 5.088 60.4923 5.088C60.9403 5.088 61.3483 5.248 61.7163 5.568C62.1003 5.888 62.2923 6.296 62.2923 6.792C62.2923 7.288 62.1003 7.696 61.7163 8.016C61.3483 8.32 60.9403 8.472 60.4923 8.472C60.0443 8.472 59.6203 8.32 59.2203 8.016C58.8363 7.696 58.6443 7.288 58.6443 6.792ZM68.4179 10.512L68.6819 12.384L68.6339 12.216C69.0019 11.56 69.5219 11.032 70.1939 10.632C70.8659 10.216 71.6899 10.008 72.6659 10.008C73.6579 10.008 74.4819 10.304 75.1379 10.896C75.8099 11.472 76.1539 12.224 76.1699 13.152V21H72.8099V14.4C72.7939 13.936 72.6659 13.568 72.4259 13.296C72.2019 13.008 71.8179 12.864 71.2739 12.864C70.7619 12.864 70.3139 13.032 69.9299 13.368C69.5459 13.704 69.2499 14.16 69.0419 14.736C68.8339 15.312 68.7299 15.976 68.7299 16.728V21H65.3699V10.512H68.4179ZM78.8053 3.336H90.7093V6.696H86.4133V21H82.9333V6.696H78.8053V3.336ZM96.095 21.288C94.815 21.288 93.727 21.048 92.831 20.568C91.951 20.088 91.279 19.424 90.815 18.576C90.351 17.728 90.119 16.752 90.119 15.648C90.119 14.592 90.391 13.64 90.935 12.792C91.479 11.944 92.207 11.272 93.119 10.776C94.031 10.264 95.047 10.008 96.167 10.008C97.671 10.008 98.903 10.448 99.863 11.328C100.839 12.192 101.471 13.448 101.759 15.096L93.599 17.688L92.855 15.864L98.759 13.872L98.063 14.184C97.935 13.768 97.703 13.408 97.367 13.104C97.047 12.784 96.559 12.624 95.903 12.624C95.407 12.624 94.967 12.744 94.583 12.984C94.215 13.208 93.927 13.536 93.719 13.968C93.527 14.384 93.431 14.88 93.431 15.456C93.431 16.112 93.551 16.664 93.791 17.112C94.031 17.544 94.359 17.872 94.775 18.096C95.191 18.32 95.655 18.432 96.167 18.432C96.535 18.432 96.887 18.368 97.223 18.24C97.575 18.112 97.919 17.944 98.255 17.736L99.743 20.232C99.183 20.552 98.575 20.808 97.919 21C97.279 21.192 96.671 21.288 96.095 21.288ZM112.938 20.064C112.474 20.432 111.89 20.728 111.186 20.952C110.498 21.176 109.818 21.288 109.146 21.288C107.946 21.288 106.898 21.072 106.002 20.64C105.122 20.192 104.434 19.56 103.938 18.744C103.458 17.912 103.218 16.912 103.218 15.744C103.218 14.576 103.482 13.584 104.01 12.768C104.538 11.936 105.226 11.304 106.074 10.872C106.938 10.44 107.842 10.224 108.786 10.224C109.73 10.224 110.546 10.352 111.234 10.608C111.938 10.864 112.538 11.2 113.034 11.616L111.402 13.776C111.178 13.6 110.866 13.424 110.466 13.248C110.082 13.056 109.626 12.96 109.098 12.96C108.634 12.96 108.21 13.08 107.826 13.32C107.442 13.56 107.138 13.888 106.914 14.304C106.69 14.72 106.578 15.2 106.578 15.744C106.578 16.256 106.698 16.728 106.938 17.16C107.178 17.592 107.506 17.936 107.922 18.192C108.354 18.432 108.858 18.552 109.434 18.552C109.802 18.552 110.138 18.504 110.442 18.408C110.762 18.296 111.034 18.144 111.258 17.952L112.938 20.064ZM115.352 21V2.064H118.64V12.624L118.616 12.216C118.984 11.56 119.504 11.032 120.176 10.632C120.848 10.216 121.672 10.008 122.648 10.008C123.64 10.008 124.464 10.304 125.12 10.896C125.792 11.472 126.136 12.224 126.152 13.152V21H122.792V14.4C122.776 13.936 122.648 13.568 122.408 13.296C122.184 13.008 121.8 12.864 121.256 12.864C120.744 12.864 120.296 13.032 119.912 13.368C119.528 13.704 119.232 14.16 119.024 14.736C118.816 15.312 118.712 15.976 118.712 16.728V21H115.352Z" fill="white"/>
<path d="M60.345 3.5L61 4.5C61.2578 4.85833 61.9348 6.00656 62 6.33727C62.0652 6.66799 62.0318 7.01081 61.9042 7.32238C61.7765 7.63394 61.5602 7.90025 61.2826 8.08762C61.0051 8.27499 60.6788 8.375 60.345 8.375C60.0112 8.375 59.6849 8.27499 59.4074 8.08762C59.1298 7.90025 58.9135 7.63394 58.7859 7.32238C58.6582 7.01081 58.6248 6.66799 58.69 6.33727C58.7552 6.00656 60 4 60 4L60.345 3.5Z" stroke="white" stroke-linecap="round" stroke-linejoin="round"/>
<circle cx="60" cy="5" r="1" fill="white"/>
</svg>
