<svg width="26" height="26" viewBox="0 0 26 26" fill="none" xmlns="http://www.w3.org/2000/svg">
<path d="M24.9167 3.25003C23.8793 3.9818 22.7307 4.54148 21.515 4.90753C20.8626 4.15733 19.9955 3.62561 19.031 3.38428C18.0665 3.14295 17.0512 3.20366 16.1223 3.55819C15.1934 3.91272 14.3959 4.54396 13.8374 5.36656C13.279 6.18915 12.9867 7.16339 13 8.15753V9.24086C11.0962 9.29023 9.20975 8.86799 7.50863 8.01176C5.80751 7.15553 4.34455 5.89188 3.25004 4.33336C3.25004 4.33336 -1.08329 14.0834 8.66671 18.4167C6.43561 19.9312 3.77779 20.6905 1.08337 20.5834C10.8334 26 22.75 20.5834 22.75 8.12503C22.749 7.82327 22.72 7.52226 22.6634 7.22586C23.769 6.13548 24.5493 4.7588 24.9167 3.25003Z" stroke="black" stroke-width="2" stroke-linecap="round" stroke-linejoin="round"/>
</svg>
